HIERARCHY
ROOT Hips
{
 OFFSET 0.000000 0.000000 0.000000
 CHANNELS 6 Xposition Yposition Zposition Yrotation Xrotation Zrotation
 JOINT Chest
 {
  OFFSET 0.000000 9.585900 0.002600
  CHANNELS 3 Yrotation Xrotation Zrotation
  JOINT Chest2
  {
   OFFSET 0.000000 9.601200 -0.005300
   CHANNELS 3 Yrotation Xrotation Zrotation
   JOINT Chest3
   {
    OFFSET 0.000000 9.561800 0.000000
    CHANNELS 3 Yrotation Xrotation Zrotation
    JOINT Chest4
    {
     OFFSET 0.000000 9.552100 0.000000
     CHANNELS 3 Yrotation Xrotation Zrotation
     JOINT Neck
     {
      OFFSET 0.000000 14.453000 0.000000
      CHANNELS 3 Yrotation Xrotation Zrotation
      JOINT Head
      {
       OFFSET 0.000000 8.936500 -0.011300
       CHANNELS 3 Yrotation Xrotation Zrotation
       End Site
       {
        OFFSET 0.000000 17.073600 -0.006000
       }
      }
     }
     JOINT RightCollar
     {
      OFFSET -2.921100 9.558500 0.000000
      CHANNELS 3 Yrotation Xrotation Zrotation
      JOINT RightShoulder
      {
       OFFSET -13.519700 0.000000 0.000000
       CHANNELS 3 Yrotation Xrotation Zrotation
       JOINT RightElbow
       {
        OFFSET 0.000000 -29.696600 0.000000
        CHANNELS 3 Yrotation Xrotation Zrotation
        JOINT RightWrist
        {
         OFFSET 0.000000 -24.004700 0.000000
         CHANNELS 3 Yrotation Xrotation Zrotation
         End Site
         {
          OFFSET 0.000000 -17.728500 0.000000
         }
        }
       }
      }
     }
     JOINT LeftCollar
     {
      OFFSET 2.921100 9.558500 0.000000
      CHANNELS 3 Yrotation Xrotation Zrotation
      JOINT LeftShoulder
      {
       OFFSET 13.519700 0.000000 0.000000
       CHANNELS 3 Yrotation Xrotation Zrotation
       JOINT LeftElbow
       {
        OFFSET 0.000000 -29.696600 0.000000
        CHANNELS 3 Yrotation Xrotation Zrotation
        JOINT LeftWrist
        {
         OFFSET 0.000000 -24.004700 0.000000
         CHANNELS 3 Yrotation Xrotation Zrotation
         End Site
         {
          OFFSET 0.000000 -17.728500 0.000000
         }
        }
       }
      }
     }
    }
   }
  }
 }
 JOINT RightHip
 {
  OFFSET -7.771700 -0.012900 -0.001300
  CHANNELS 3 Yrotation Xrotation Zrotation
  JOINT RightKnee
  {
   OFFSET 0.000000 -40.869800 0.001200
   CHANNELS 3 Yrotation Xrotation Zrotation
   JOINT RightAnkle
   {
    OFFSET 0.000000 -39.717900 0.002100
    CHANNELS 3 Yrotation Xrotation Zrotation
    JOINT RightToe
    {
     OFFSET 0.000000 -4.965400 11.033500
     CHANNELS 3 Yrotation Xrotation Zrotation
     End Site
     {
      OFFSET 0.000000 -1.423100 5.872300
     }
    }
   }
  }
 }
 JOINT LeftHip
 {
  OFFSET 7.771700 -0.012900 -0.001300
  CHANNELS 3 Yrotation Xrotation Zrotation
  JOINT LeftKnee
  {
   OFFSET 0.000000 -40.869800 0.001200
   CHANNELS 3 Yrotation Xrotation Zrotation
   JOINT LeftAnkle
   {
    OFFSET 0.000000 -39.717900 0.002100
    CHANNELS 3 Yrotation Xrotation Zrotation
    JOINT LeftToe
    {
     OFFSET 0.000000 -4.965400 11.033500
     CHANNELS 3 Yrotation Xrotation Zrotation
     End Site
     {
      OFFSET 0.000000 -1.423100 5.872300
     }
    }
   }
  }
 }
}
MOTION
Frames: 11
Frame Time: 0.008333
-247.941782 60.592812 -74.374962 155.669044 -37.080730 1.000601 4.683032 19.766388 2.542214 0.523808 2.501386 0.210969 0.865539 4.100980 0.358091 3.858496 16.997116 1.949271 4.965158 18.847207 -1.670443 5.728107 -5.647637 -2.936300 8.383377 6.861017 -1.627557 21.473330 -23.090432 -16.213552 41.501159 -51.344177 -35.266196 12.947666 9.905385 -27.597623 -12.123430 1.425058 -6.009839 -8.901159 -21.758643 7.949892 -64.871067 -42.852003 51.632073 -13.002880 3.075966 5.539311 1.801346 -31.580557 9.905480 -23.849370 63.128404 -23.424781 -1.592551 0.191364 -0.492064 0.027597 0.031855 0.011819 11.797201 -33.320728 5.082516 25.491488 61.512552 26.657519 -15.824220 -10.645650 1.047548 -0.047176 -0.075031 -0.064528
-247.938594 60.591501 -74.374137 155.667805 -37.081905 1.006593 4.680540 19.765783 2.536698 0.523477 2.500614 0.210585 0.864847 4.102077 0.358471 3.854659 16.996052 1.945804 4.970426 18.860884 -1.667608 5.729494 -5.646318 -2.936002 8.386877 6.858116 -1.629639 21.483146 -23.088131 -16.212139 41.488919 -51.338997 -35.254962 12.942199 9.907336 -27.601960 -12.118217 1.413423 -6.005714 -8.902821 -21.752748 7.949967 -64.858586 -42.838166 51.615621 -13.000340 3.082527 5.539702 1.799631 -31.584791 9.899094 -23.847522 63.139133 -23.412222 -1.598812 0.189299 -0.508336 0.032558 0.029592 0.014043 11.790805 -33.318193 5.088235 25.481584 61.512860 26.638281 -15.823381 -10.622743 1.049005 -0.089757 -0.093359 -0.068727
-247.939980 60.590270 -74.375458 155.683009 -37.085556 1.035071 4.654365 19.770016 2.496783 0.523715 2.501928 0.210584 0.863910 4.100087 0.357289 3.853541 16.998280 1.942838 4.974322 18.866770 -1.662874 5.732127 -5.639823 -2.934299 8.376700 6.829935 -1.638832 21.516724 -23.074241 -16.207043 41.434719 -51.323820 -35.209615 12.935516 9.903967 -27.616646 -12.114984 1.407906 -6.001315 -8.908934 -21.756235 7.957192 -64.840978 -42.834918 51.596234 -12.998896 3.084903 5.540332 1.795031 -31.588047 9.860424 -23.837499 63.153257 -23.406344 -1.597685 0.199206 -0.512733 0.026824 0.016349 0.010789 11.781351 -33.302836 5.071939 25.480551 61.509573 26.616770 -15.894187 -10.614976 1.036699 -0.019310 -0.084297 -0.035643
-247.933978 60.588707 -74.373292 155.661915 -37.088457 1.038188 4.670611 19.769151 2.508587 0.523618 2.502229 0.210001 0.858495 4.099520 0.356867 3.858305 17.000138 1.939658 4.977051 18.874523 -1.661791 5.731520 -5.598753 -2.926285 8.375821 6.824189 -1.643287 21.521675 -23.070261 -16.202409 41.413863 -51.319268 -35.180793 12.931846 9.901248 -27.627352 -12.110771 1.380735 -5.990533 -8.910390 -21.740112 7.951542 -64.818317 -42.819259 51.567684 -12.992606 3.081388 5.546022 1.802776 -31.586567 9.873750 -23.837423 63.156035 -23.405267 -1.600012 0.186393 -0.515919 0.026846 0.027809 0.010585 11.787236 -33.299344 5.091614 25.475520 61.500020 26.608930 -15.926252 -10.562722 1.035886 -0.073649 -0.114808 -0.042263
-247.933110 60.587385 -74.373528 155.673957 -37.094561 1.056248 4.637692 19.771995 2.480031 0.526008 2.505265 0.207915 0.863653 4.101349 0.356034 3.846376 17.002800 1.939570 4.984819 18.886107 -1.664627 5.734691 -5.573809 -2.925760 8.388118 6.814676 -1.653514 21.538139 -23.073901 -16.208027 41.369362 -51.307711 -35.134979 12.931190 9.885907 -27.638367 -12.094094 1.373877 -5.993490 -8.919286 -21.743403 7.957882 -64.773572 -42.792835 51.519292 -12.983774 3.061582 5.563961 1.796837 -31.583393 9.846608 -23.846663 63.162441 -23.410237 -1.588076 0.189432 -0.523631 0.020481 0.020931 0.007686 11.789521 -33.284754 5.067060 25.511070 61.483218 26.634009 -15.946706 -10.546024 1.030889 -0.042679 -0.110180 -0.030159
-247.928402 60.587125 -74.373472 155.652808 -37.111720 1.073184 4.650534 19.787233 2.478031 0.523474 2.503705 0.209577 0.863571 4.103136 0.355743 3.840525 17.010651 1.941392 4.981948 18.915756 -1.665328 5.742441 -5.590346 -2.938108 8.394738 6.790662 -1.671927 21.542951 -23.070412 -16.205261 41.305818 -51.282821 -35.053939 12.916674 9.855992 -27.662934 -12.086473 1.349097 -5.991092 -8.915345 -21.729221 7.948006 -64.760245 -42.786583 51.507932 -12.985745 3.064404 5.567100 1.789854 -31.574891 9.849182 -23.847554 63.176964 -23.417824 -1.576472 0.193375 -0.531664 0.015205 0.012336 0.005423 11.799274 -33.253605 5.077217 25.520639 61.461748 26.624567 -15.915012 -10.511983 1.035706 -0.022738 -0.116944 -0.026815
-247.924767 60.585304 -74.371299 155.652995 -37.113633 1.077876 4.633317 19.784588 2.483493 0.529423 2.507716 0.199547 0.863042 4.105700 0.355622 3.838000 17.016983 1.943009 4.980337 18.930256 -1.670857 5.748030 -5.592220 -2.945775 8.394600 6.733735 -1.704460 21.543925 -23.038414 -16.175609 41.269176 -51.267969 -35.007749 12.913176 9.842321 -27.676706 -12.082121 1.319103 -5.989058 -8.915932 -21.722732 7.942368 -64.729909 -42.777854 51.480851 -12.992200 3.068030 5.568051 1.784358 -31.576716 9.844160 -23.849524 63.182940 -23.411612 -1.570291 0.190485 -0.541848 0.017702 0.013388 0.003402 11.798340 -33.246722 5.080325 25.522888 61.445140 26.616747 -15.942872 -10.462239 1.035055 -0.025676 -0.130375 -0.023115
-247.921993 60.583729 -74.369419 155.651247 -37.117168 1.088627 4.625267 19.786644 2.480996 0.527100 2.510015 0.199813 0.857360 4.110308 0.365388 3.838170 17.019592 1.928725 4.976323 18.947022 -1.673540 5.737721 -5.539451 -2.947645 8.396027 6.717190 -1.720054 21.554462 -23.035840 -16.181155 41.229774 -51.257212 -34.962976 12.907202 9.829566 -27.684593 -12.080102 1.292923 -5.985644 -8.924063 -21.726736 7.948276 -64.679184 -42.749197 51.421245 -12.983537 3.059736 5.583883 1.788820 -31.574658 9.830592 -23.859508 63.183484 -23.399661 -1.573742 0.184816 -0.566478 0.027812 0.017494 0.007722 11.803074 -33.239263 5.076229 25.516123 61.429789 26.602434 -15.981049 -10.399548 1.031088 -0.036567 -0.149348 -0.018810
-247.920973 60.583009 -74.368936 155.649546 -37.127152 1.111388 4.612635 19.795891 2.465317 0.528070 2.511680 0.201067 0.855323 4.113506 0.364697 3.839041 17.020251 1.921198 4.970721 18.966876 -1.668697 5.737252 -5.530744 -2.955208 8.392803 6.703721 -1.728902 21.565389 -23.038701 -16.187964 41.195947 -51.250950 -34.925037 12.894355 9.827667 -27.686828 -12.084413 1.244240 -5.969165 -8.915026 -21.700260 7.935620 -64.650313 -42.747165 51.391465 -12.986474 3.064123 5.583314 1.793565 -31.567529 9.803719 -23.852732 63.192840 -23.388448 -1.568432 0.176499 -0.568924 0.027250 0.021287 0.002038 11.808066 -33.220763 5.071959 25.499310 61.417111 26.570347 -16.051434 -10.331999 1.019963 -0.049170 -0.167995 -0.009554
-247.920457 60.581950 -74.367651 155.647146 -37.132066 1.133836 4.603463 19.801174 2.446280 0.525559 2.512949 0.205967 0.854085 4.115642 0.364748 3.837407 17.026891 1.922547 4.964325 18.980494 -1.674040 5.741991 -5.539750 -2.966618 8.389063 6.644118 -1.770779 21.589433 -23.022534 -16.175717 41.109063 -51.229430 -34.842302 12.890251 9.816974 -27.700309 -12.081101 1.210424 -5.971878 -8.917957 -21.693429 7.935118 -64.623101 -42.722102 51.354367 -12.973060 3.059467 5.593561 1.791900 -31.561840 9.772987 -23.818450 63.201531 -23.357798 -1.555146 0.170033 -0.566841 0.015012 0.023972 -0.002115 11.814536 -33.206389 5.067676 25.491483 61.401098 26.546353 -16.116140 -10.265371 1.007465 -0.058355 -0.181291 -0.002197
-247.917322 60.581875 -74.366166 155.641011 -37.145255 1.141894 4.602839 19.812974 2.445106 0.521600 2.512729 0.209771 0.858025 4.118927 0.361772 3.828804 17.040515 1.939111 4.959915 18.987116 -1.692564 5.736480 -5.522049 -2.969048 8.393918 6.614210 -1.808401 21.588495 -23.010781 -16.161888 41.070853 -51.209057 -34.789437 12.889714 9.796926 -27.726660 -12.072888 1.167303 -5.984132 -8.923775 -21.685867 7.934772 -64.589592 -42.698680 51.314539 -12.968875 3.056251 5.597091 1.790394 -31.549802 9.766827 -23.810882 63.207113 -23.348095 -1.547400 0.165678 -0.568950 0.009241 0.025166 -0.005528 11.817513 -33.189093 5.070539 25.503231 61.384928 26.547902 -16.078707 -10.203276 1.003865 -0.105726 -0.213484 -0.008759
